<?xml version="1.0" encoding="UTF-8" standalone="no"?>
<!DOCTYPE svg PUBLIC "-//W3C//DTD SVG 1.1//EN" "http://www.w3.org/Graphics/SVG/1.1/DTD/svg11.dtd">
<svg width="100%" height="100%" viewBox="0 0 28 28" version="1.1" xmlns="http://www.w3.org/2000/svg" xmlns:xlink="http://www.w3.org/1999/xlink" xml:space="preserve" xmlns:serif="http://www.serif.com/" style="fill-rule:evenodd;clip-rule:evenodd;stroke-linejoin:round;stroke-miterlimit:1.41421;">
    <g transform="matrix(1,0,0,1,-150,-159)">
        <g id="LOGO-2" transform="matrix(1,0,0,1,-1,34)">
            <rect x="151" y="125" width="28" height="28" style="fill:none;"/>
            <clipPath id="_clip1">
                <rect x="151" y="125" width="28" height="28"/>
            </clipPath>
            <g clip-path="url(#_clip1)">
                <g transform="matrix(0.219238,0,0,0.219238,148.808,110.076)">
                    <g transform="matrix(1,0,0,1,118.348,171.721)">
                        <path d="M0,-85.848C-24.16,-109.45 -63.138,-109.915 -87.816,-86.856C-93.289,-81.743 -97.655,-75.911 -100.922,-69.65C-103.21,-65.265 -105.157,-60.609 -106.524,-55.81C-107.944,-50.83 -108.383,-46.111 -108.346,-40.932C-108.256,-28.382 -108.346,7.462 -108.346,8.068C-108.344,12.455 -106.588,16.206 -103.476,19.334C-100.37,22.456 -96.634,24.023 -92.284,24.027C-91.62,24.028 -51.199,24.059 -41.446,24.066C-40.043,24.067 -38.644,24.026 -37.248,23.875C-28.184,22.887 -19.459,19.984 -11.622,15.257C-7.229,12.607 -3.085,9.378 0.7,5.567C25.823,-19.725 25.585,-60.853 0,-85.848" style="fill:white;fill-rule:nonzero;"/>
                    </g>
                    <g transform="matrix(1,0,0,1,24.0915,174.447)">
                        <path d="M0,15.134C2.011,15.136 3.97,14.327 5.391,12.903C6.85,11.44 7.577,9.658 7.576,7.555C7.575,5.495 6.846,3.721 5.384,2.224C3.902,0.741 2.108,-0.002 0.006,-0.001C-2.072,0 -3.854,0.744 -5.336,2.228C-6.817,3.737 -7.559,5.516 -7.558,7.561C-7.557,9.641 -6.814,11.425 -5.332,12.908C-3.852,14.389 -2.072,15.131 0,15.134" style="fill:rgb(79,210,51);fill-rule:nonzero;"/>
                    </g>
                    <g transform="matrix(-167.243,-4.78045e-14,1.68662e-13,167.243,132.412,131.827)">
                        <path d="M0.611,0.227C0.486,0.371 0.268,0.386 0.124,0.261C-0.02,0.136 -0.035,-0.083 0.09,-0.227C0.215,-0.371 0.433,-0.386 0.577,-0.261C0.721,-0.136 0.736,0.082 0.612,0.226C0.612,0.226 0.612,0.226 0.611,0.227Z" style="fill:url(#_Linear2);fill-rule:nonzero;"/>
                    </g>
                    <g transform="matrix(1,0,0,1,49.2448,167.824)">
                        <path d="M0,-72.053C0,-72.053 1.773,-72.682 5.349,-67.368C8.924,-62.054 13.302,-55.856 13.302,-55.856C13.302,-55.856 14.556,-53.374 11.726,-50.431C8.896,-47.489 7.042,-45.038 8.567,-41.359C8.567,-41.359 14.571,-28.861 30.33,-19.779C30.33,-19.779 34.135,-17.774 36.987,-20.784C36.987,-20.784 40.569,-24.197 42.478,-24.449C43.623,-24.6 44.609,-24.636 47.548,-22.694C50.487,-20.753 59.039,-14.749 59.039,-14.749C59.039,-14.749 62.691,-12.277 59.867,-7.914C57.043,-3.55 55.995,0.629 47.465,-0.223C38.935,-1.075 25.054,-7.145 14.086,-17.49C3.118,-27.836 -1.902,-35.127 -8.216,-47.624C-11.803,-54.722 -13.491,-61.4 -9.771,-65.795C-6.58,-69.563 -3.184,-71.771 0,-72.053" style="fill:white;fill-rule:nonzero;"/>
                    </g>
                </g>
            </g>
        </g>
    </g>
    <defs>
        <linearGradient id="_Linear2" x1="0" y1="0" x2="1" y2="0" gradientUnits="userSpaceOnUse" gradientTransform="matrix(-0.490374,-0.486735,-0.486735,0.490374,0.594162,0.245793)"><stop offset="0" style="stop-color:rgb(27,144,255);stop-opacity:1"/><stop offset="1" style="stop-color:rgb(27,199,244);stop-opacity:1"/></linearGradient>
    </defs>
</svg>
